<?xml version="1.0" encoding="UTF-8"?>
<svg id="Layer_1" xmlns="http://www.w3.org/2000/svg" version="1.1" viewBox="0 0 24 24">
  <g id="_x3C_Radial_Repeat_x3E_">
    <rect x="10.479" y="17.929" width="3.028" height="6.055" rx=".6" ry=".6" transform="translate(23.97 41.922) rotate(-179.956)" fill="#dc1616"/>
  </g>
  <g id="_x3C_Radial_Repeat_x3E_1" data-name="_x3C_Radial_Repeat_x3E_">
    <rect x="5.216" y="16.214" width="3.028" height="6.055" rx=".6" ry=".6" transform="translate(.85 38.759) rotate(-143.956)" fill="#dc1616"/>
  </g>
  <g id="_x3C_Radial_Repeat_x3E_2" data-name="_x3C_Radial_Repeat_x3E_">
    <rect x="1.966" y="11.733" width="3.028" height="6.055" rx=".6" ry=".6" transform="translate(-9.489 22.622) rotate(-107.956)" fill="#dc1616"/>
  </g>
  <g id="_x3C_Radial_Repeat_x3E_3" data-name="_x3C_Radial_Repeat_x3E_">
    <rect x="1.97" y="6.198" width="3.028" height="6.055" rx=".6" ry=".6" transform="translate(-6.367 9.681) rotate(-71.956)" fill="#dc1616"/>
  </g>
  <g id="_x3C_Radial_Repeat_x3E_4" data-name="_x3C_Radial_Repeat_x3E_">
    <rect x="5.227" y="1.722" width="3.028" height="6.055" rx=".6" ry=".6" transform="translate(-1.505 4.863) rotate(-35.956)" fill="#dc1616"/>
  </g>
  <g id="_x3C_Radial_Repeat_x3E_5" data-name="_x3C_Radial_Repeat_x3E_">
    <rect x="10.494" y=".016" width="3.028" height="6.055" rx=".6" ry=".6" fill="#dc1616"/>
  </g>
  <g id="_x3C_Radial_Repeat_x3E_6" data-name="_x3C_Radial_Repeat_x3E_">
    <rect x="15.756" y="1.731" width="3.028" height="6.055" rx=".6" ry=".6" transform="translate(6.106 -9.251) rotate(36.044)" fill="#dc1616"/>
  </g>
  <g id="_x3C_Radial_Repeat_x3E_7" data-name="_x3C_Radial_Repeat_x3E_">
    <rect x="19.006" y="6.211" width="3.028" height="6.055" rx=".6" ry=".6" transform="translate(22.983 -13.129) rotate(72.044)" fill="#dc1616"/>
  </g>
  <g id="_x3C_Radial_Repeat_x3E_8" data-name="_x3C_Radial_Repeat_x3E_">
    <rect x="19.002" y="11.747" width="3.028" height="6.055" rx=".6" ry=".6" transform="translate(40.918 -.156) rotate(108.044)" fill="#dc1616"/>
  </g>
  <g id="_x3C_Radial_Repeat_x3E_9" data-name="_x3C_Radial_Repeat_x3E_">
    <rect x="15.745" y="16.222" width="3.028" height="6.055" rx=".6" ry=".6" transform="translate(42.532 24.698) rotate(144.044)" fill="#dc1616"/>
  </g>
</svg>